<?xml version="1.0" encoding="UTF-8"?>
<svg width="500" height="500" version="1.0" viewBox="0 0 375 375" xmlns="http://www.w3.org/2000/svg" zoomAndPan="magnify">
<path transform="matrix(.57165 -.48551 .48551 .57165 109.77 116.45)" d="m0.0057508 0.49772c52.889 0.70077 86.167 0.70127 99.84 8.93e-4" fill="none" stroke="#fff"/>
<path transform="matrix(.32029 -.67817 .67817 .32029 37.763 224.86)" d="m0.28947 25.545c46.707-33.395 103.78-33.395 171.22 4.85e-4" fill="none" stroke="#fff"/>
<path transform="matrix(-.69414 -.28402 .28402 -.69414 151.09 304.72)" d="m0.31373 40.26c65.337-53.014 116.78-53.015 154.33 0.003178" fill="none" stroke="#fff"/>
<path transform="matrix(-.40149 .63349 -.63349 -.40149 167.42 68.439)" d="m0.036417 0.49914c45.303 3.1613 89.07 3.1589 131.3-0.00295" fill="none" stroke="#fff"/>
<path transform="matrix(.72156 .20458 -.20458 .72156 109.94 228.17)" d="m0.23245 0.44157c26.342 13.878 52.71 13.872 79.099 0.002394" fill="none" stroke="#fff"/>
<path transform="matrix(-.042321 .7488 -.7488 -.042321 114.72 151.31)" d="m0.21677 0.44895c44.677 21.633 78.998 21.634 102.95 0.003459" fill="none" stroke="#fff"/>
<path transform="matrix(.62124 -.4202 .4202 .62124 187.41 235.07)" d="m0.04429 0.49861c28.033 2.3489 57.448 2.3495 88.238-0.001139" fill="none" stroke="#fff"/>
<path transform="matrix(.47942 -.57677 .57677 .47942 186.49 265.03)" d="m0.10236 0.49301c29.848 6.2832 68.527 6.283 116.03 0.002652" fill="none" stroke="#fff"/>
<path transform="matrix(.50989 .55001 -.55001 .50989 186.95 37.427)" d="m0.11926 0.48974c38.168 9.4751 78.266 9.4754 120.28-0.002312" fill="none" stroke="#fff"/>
<path transform="matrix(.46172 .59102 -.59102 .46172 256.49 97.181)" d="m0.14364 14.356c61.96-18.474 109.92-18.476 143.87 0.003002" fill="none" stroke="#fff"/>
<path transform="matrix(.46334 -.58976 .58976 .46334 239.24 284.28)" d="m0.35293 0.35949c53.01 53.049 106.88 53.05 161.62-0.001419" fill="none" stroke="#fff"/>
<path transform="matrix(-.35066 .66298 -.66298 -.35066 196.37 42.754)" d="m0.098887 14.479c90.393-18.64 157.62-18.64 201.69 0.002015" fill="none" stroke="#fff"/>
<path transform="matrix(.62791 -.41016 .41016 .62791 115.73 171.21)" d="m0.14812 0.4761c25.732 7.9498 50.891 7.9482 75.486 8.36e-4" fill="none" stroke="#fff"/>
<path transform="matrix(.51406 .54611 -.54611 .51406 163.69 140.24)" d="m-0.0029457 0.49958c6.6874 4.9e-4 13.375 9.8e-4 20.062 0.001469" fill="none" stroke="#fff"/>
<path transform="matrix(-.05359 .74808 -.74808 -.05359 175.49 151.44)" d="m0.037486 2.2933c33.075-2.3903 74.676-2.394 124.8 0.004313" fill="none" stroke="#fff"/>
<path transform="matrix(.11672 -.74086 .74086 .11672 184.49 234.9)" d="m0.046969 4.2465c52.207-4.9979 82.035-4.9938 89.491 4.04e-4" fill="none" stroke="#fff"/>
<path transform="matrix(.71596 .2234 -.2234 .71596 198.12 168.69)" d="m0.10626 0.49239c30.356 6.5358 61.99 6.535 94.901-0.002544" fill="none" stroke="#fff"/>
<path transform="matrix(.62335 .41706 -.41706 .62335 172.89 127.03)" d="m0.073484 0.49672c52.143 7.8384 102.03 7.841 149.68-0.002249" fill="none" stroke="#fff"/>
<path transform="matrix(.41998 -.62138 .62138 .41998 172.42 127.16)" d="m0.0011132 0.49717c25.957 0.001384 44.724 0.003626 56.296 0.002409" fill="none" stroke="#fff"/>
<path transform="matrix(.43485 .61107 -.61107 .43485 207.8 84.127)" d="m0.14251 18.803c83.139-24.406 136.53-24.401 160.18 0.002323" fill="none" stroke="#fff"/>
<path transform="matrix(.73203 .1632 -.1632 .73203 198.04 274.62)" d="m0.16506 0.47028c18.957 6.6435 37.869 6.6429 56.729-5.11e-4" fill="none" stroke="#fff"/>
<path transform="matrix(-.46923 .58508 -.58508 -.46923 276.79 198.69)" d="m0.22085 18.232c48.651-23.642 96.916-23.641 144.8 0.001158" fill="none" stroke="#fff"/>
<path transform="matrix(.26995 -.69974 .69974 .26995 166.7 316.39)" d="m0.21493 0.48793c16.409 7.8046 40.776 7.8048 73.112-0.003003" fill="none" stroke="#fff"/>
<path transform="matrix(-.31363 .68128 -.68128 -.31363 166.69 278.57)" d="m0.16179 6.3615c22.72-7.816 51.16-7.8131 85.322-0.00293" fill="none" stroke="#fff"/>
<path transform="matrix(.75 0 0 .75 135.55 334.44)" d="m-0.0012563 0.49845h123.58" fill="none" stroke="#fff"/>
<path transform="matrix(-.36345 -.65605 .65605 -.36345 225.2 336.6)" d="m0.13235 4.6941c20.747-5.5946 43.335-5.5908 67.764-2.51e-4" fill="none" stroke="#fff"/>
<path transform="matrix(.74992 .010904 -.010904 .74992 167.03 316)" d="m0.093098 0.48935c15.163 2.8944 27.665 2.895 37.499 0.001675" fill="none" stroke="#fff"/>
<path transform="matrix(.2269 -.71486 .71486 .2269 194.82 316.97)" d="m0.41206 0.4324c6.9719 10.104 19.295 10.105 36.966-0.001121" fill="none" stroke="#fff"/>
</svg>
